<?xml version="1.0" encoding="utf-8" standalone="no"?>
<!DOCTYPE svg PUBLIC "-//W3C//DTD SVG 1.1//EN"
  "http://www.w3.org/Graphics/SVG/1.1/DTD/svg11.dtd">
<!-- Created with matplotlib (http://matplotlib.org/) -->
<svg height="432pt" version="1.1" viewBox="0 0 576 432" width="576pt" xmlns="http://www.w3.org/2000/svg" xmlns:xlink="http://www.w3.org/1999/xlink">
 <defs>
  <style type="text/css">
*{stroke-linecap:butt;stroke-linejoin:round;}
  </style>
 </defs>
 <g id="figure_1">
  <g id="patch_1">
   <path d="
M0 432
L576 432
L576 0
L0 0
z
" style="fill:#ffffff;"/>
  </g>
  <g id="axes_1">
   <g id="patch_2">
    <path d="
M72 388.8
L518.4 388.8
L518.4 43.2
L72 43.2
z
" style="fill:#ffffff;"/>
   </g>
   <g id="line2d_1">
    <path clip-path="url(#p7ff5b81e1d)" d="
M72 46.1456
L74.48 46.3599
L76.96 47.0016
L79.44 48.0677
L81.92 49.553
L84.4 51.4504
L86.88 53.7508
L89.36 56.4433
L91.84 59.5153
L94.32 62.9526
L96.8 66.7396
L99.28 70.8592
L101.76 75.2933
L104.24 80.0228
L106.72 85.0277
L111.68 95.7803
L116.64 107.381
L121.6 119.656
L129.04 138.96
L141.44 172.182
L151.36 198.461
L158.8 217.42
L163.76 229.548
L168.72 241.196
L173.68 252.319
L178.64 262.885
L183.6 272.873
L188.56 282.274
L193.52 291.085
L198.48 299.312
L203.44 306.967
L208.4 314.066
L213.36 320.629
L218.32 326.679
L223.28 332.242
L228.24 337.342
L233.2 342.007
L238.16 346.263
L243.12 350.138
L248.08 353.657
L253.04 356.845
L258 359.728
L262.96 362.329
L267.92 364.669
L272.88 366.769
L277.84 368.65
L282.8 370.33
L287.76 371.826
L292.72 373.154
L300.16 374.864
L307.6 376.275
L315.04 377.427
L322.48 378.358
L329.92 379.099
L339.84 379.837
L349.76 380.343
L362.16 380.72
L377.04 380.896
L394.4 380.845
L419.2 380.513
L486.16 379.487
L513.44 379.336
L515.92 379.333
L515.92 379.333" style="fill:none;stroke:#0000ff;stroke-linecap:square;"/>
   </g>
   <g id="line2d_2">
    <path clip-path="url(#p7ff5b81e1d)" d="
M72 46.1456
L74.48 46.2053
L76.96 46.3844
L79.44 46.6825
L81.92 47.0994
L84.4 47.6346
L86.88 48.2873
L91.84 49.9422
L96.8 52.0561
L101.76 54.6187
L106.72 57.6175
L111.68 61.0379
L116.64 64.8632
L121.6 69.0748
L126.56 73.6521
L131.52 78.573
L136.48 83.8133
L141.44 89.3476
L146.4 95.1489
L153.84 104.289
L161.28 113.866
L171.2 127.133
L186.08 147.572
L198.48 164.529
L205.92 174.438
L213.36 184.015
L220.8 193.155
L225.76 198.957
L230.72 204.491
L235.68 209.731
L240.64 214.652
L245.6 219.229
L250.56 223.441
L255.52 227.266
L260.48 230.687
L265.44 233.685
L270.4 236.248
L275.36 238.362
L280.32 240.017
L282.8 240.67
L285.28 241.205
L287.76 241.622
L290.24 241.92
L292.72 242.099
L295.2 242.159
L297.68 242.099
L300.16 241.92
L302.64 241.622
L305.12 241.205
L307.6 240.67
L310.08 240.017
L315.04 238.362
L320 236.248
L324.96 233.685
L329.92 230.687
L334.88 227.266
L339.84 223.441
L344.8 219.229
L349.76 214.652
L354.72 209.731
L359.68 204.491
L364.64 198.957
L369.6 193.155
L377.04 184.015
L384.48 174.438
L394.4 161.171
L409.28 140.732
L421.68 123.775
L429.12 113.866
L436.56 104.289
L444 95.1489
L448.96 89.3476
L453.92 83.8133
L458.88 78.573
L463.84 73.6521
L468.8 69.0748
L473.76 64.8632
L478.72 61.0379
L483.68 57.6175
L488.64 54.6187
L493.6 52.0561
L498.56 49.9422
L503.52 48.2873
L506 47.6346
L508.48 47.0994
L510.96 46.6825
L513.44 46.3844
L515.92 46.2053
L515.92 46.2053" style="fill:none;stroke:#008000;stroke-linecap:square;"/>
   </g>
   <g id="line2d_3">
    <defs>
     <path d="
M0 1.5
C0.397805 1.5 0.77937 1.34195 1.06066 1.06066
C1.34195 0.77937 1.5 0.397805 1.5 0
C1.5 -0.397805 1.34195 -0.77937 1.06066 -1.06066
C0.77937 -1.34195 0.397805 -1.5 0 -1.5
C-0.397805 -1.5 -0.77937 -1.34195 -1.06066 -1.06066
C-1.34195 -0.77937 -1.5 -0.397805 -1.5 0
C-1.5 0.397805 -1.34195 0.77937 -1.06066 1.06066
C-0.77937 1.34195 -0.397805 1.5 0 1.5
z
" id="m2a8bbe8202" style="stroke:#000000;stroke-width:0.5;"/>
    </defs>
    <g clip-path="url(#p7ff5b81e1d)">
     <use style="fill:#0000ff;stroke:#000000;stroke-width:0.5;" x="121.6" xlink:href="#m2a8bbe8202" y="177.408948534"/>
     <use style="fill:#0000ff;stroke:#000000;stroke-width:0.5;" x="146.4" xlink:href="#m2a8bbe8202" y="220.09184517"/>
     <use style="fill:#0000ff;stroke:#000000;stroke-width:0.5;" x="171.2" xlink:href="#m2a8bbe8202" y="270.16612443"/>
     <use style="fill:#0000ff;stroke:#000000;stroke-width:0.5;" x="196.0" xlink:href="#m2a8bbe8202" y="275.984846534"/>
     <use style="fill:#0000ff;stroke:#000000;stroke-width:0.5;" x="220.8" xlink:href="#m2a8bbe8202" y="326.688405243"/>
     <use style="fill:#0000ff;stroke:#000000;stroke-width:0.5;" x="245.6" xlink:href="#m2a8bbe8202" y="341.259677062"/>
     <use style="fill:#0000ff;stroke:#000000;stroke-width:0.5;" x="270.4" xlink:href="#m2a8bbe8202" y="378.736053627"/>
     <use style="fill:#0000ff;stroke:#000000;stroke-width:0.5;" x="295.2" xlink:href="#m2a8bbe8202" y="360.832025567"/>
     <use style="fill:#0000ff;stroke:#000000;stroke-width:0.5;" x="320.0" xlink:href="#m2a8bbe8202" y="367.695181656"/>
    </g>
   </g>
   <g id="patch_3">
    <path d="
M72 43.2
L518.4 43.2" style="fill:none;stroke:#000000;stroke-linecap:square;stroke-linejoin:miter;"/>
   </g>
   <g id="patch_4">
    <path d="
M518.4 388.8
L518.4 43.2" style="fill:none;stroke:#000000;stroke-linecap:square;stroke-linejoin:miter;"/>
   </g>
   <g id="patch_5">
    <path d="
M72 388.8
L518.4 388.8" style="fill:none;stroke:#000000;stroke-linecap:square;stroke-linejoin:miter;"/>
   </g>
   <g id="patch_6">
    <path d="
M72 388.8
L72 43.2" style="fill:none;stroke:#000000;stroke-linecap:square;stroke-linejoin:miter;"/>
   </g>
   <g id="matplotlib.axis_1">
    <g id="xtick_1">
     <g id="line2d_4">
      <defs>
       <path d="
M0 0
L0 -4" id="m93b0483c22" style="stroke:#000000;stroke-width:0.5;"/>
      </defs>
      <g>
       <use style="stroke:#000000;stroke-width:0.5;" x="72.0" xlink:href="#m93b0483c22" y="388.8"/>
      </g>
     </g>
     <g id="line2d_5">
      <defs>
       <path d="
M0 0
L0 4" id="m741efc42ff" style="stroke:#000000;stroke-width:0.5;"/>
      </defs>
      <g>
       <use style="stroke:#000000;stroke-width:0.5;" x="72.0" xlink:href="#m741efc42ff" y="43.2"/>
      </g>
     </g>
     <g id="text_1">
      <!-- 0 -->
      <defs>
       <path d="
M31.7812 66.4062
Q24.1719 66.4062 20.3281 58.9062
Q16.5 51.4219 16.5 36.375
Q16.5 21.3906 20.3281 13.8906
Q24.1719 6.39062 31.7812 6.39062
Q39.4531 6.39062 43.2812 13.8906
Q47.125 21.3906 47.125 36.375
Q47.125 51.4219 43.2812 58.9062
Q39.4531 66.4062 31.7812 66.4062
M31.7812 74.2188
Q44.0469 74.2188 50.5156 64.5156
Q56.9844 54.8281 56.9844 36.375
Q56.9844 17.9688 50.5156 8.26562
Q44.0469 -1.42188 31.7812 -1.42188
Q19.5312 -1.42188 13.0625 8.26562
Q6.59375 17.9688 6.59375 36.375
Q6.59375 54.8281 13.0625 64.5156
Q19.5312 74.2188 31.7812 74.2188" id="BitstreamVeraSans-Roman-30"/>
      </defs>
      <g transform="translate(70.48828125 397.3590625)scale(0.06 -0.06)">
       <use xlink:href="#BitstreamVeraSans-Roman-30"/>
      </g>
     </g>
    </g>
    <g id="xtick_2">
     <g id="line2d_6">
      <g>
       <use style="stroke:#000000;stroke-width:0.5;" x="121.6" xlink:href="#m93b0483c22" y="388.8"/>
      </g>
     </g>
     <g id="line2d_7">
      <g>
       <use style="stroke:#000000;stroke-width:0.5;" x="121.6" xlink:href="#m741efc42ff" y="43.2"/>
      </g>
     </g>
     <g id="text_2">
      <!-- 20 -->
      <defs>
       <path d="
M19.1875 8.29688
L53.6094 8.29688
L53.6094 0
L7.32812 0
L7.32812 8.29688
Q12.9375 14.1094 22.625 23.8906
Q32.3281 33.6875 34.8125 36.5312
Q39.5469 41.8438 41.4219 45.5312
Q43.3125 49.2188 43.3125 52.7812
Q43.3125 58.5938 39.2344 62.25
Q35.1562 65.9219 28.6094 65.9219
Q23.9688 65.9219 18.8125 64.3125
Q13.6719 62.7031 7.8125 59.4219
L7.8125 69.3906
Q13.7656 71.7812 18.9375 73
Q24.125 74.2188 28.4219 74.2188
Q39.75 74.2188 46.4844 68.5469
Q53.2188 62.8906 53.2188 53.4219
Q53.2188 48.9219 51.5312 44.8906
Q49.8594 40.875 45.4062 35.4062
Q44.1875 33.9844 37.6406 27.2188
Q31.1094 20.4531 19.1875 8.29688" id="BitstreamVeraSans-Roman-32"/>
      </defs>
      <g transform="translate(118.2015625 397.3590625)scale(0.06 -0.06)">
       <use xlink:href="#BitstreamVeraSans-Roman-32"/>
       <use x="63.623046875" xlink:href="#BitstreamVeraSans-Roman-30"/>
      </g>
     </g>
    </g>
    <g id="xtick_3">
     <g id="line2d_8">
      <g>
       <use style="stroke:#000000;stroke-width:0.5;" x="171.2" xlink:href="#m93b0483c22" y="388.8"/>
      </g>
     </g>
     <g id="line2d_9">
      <g>
       <use style="stroke:#000000;stroke-width:0.5;" x="171.2" xlink:href="#m741efc42ff" y="43.2"/>
      </g>
     </g>
     <g id="text_3">
      <!-- 40 -->
      <defs>
       <path d="
M37.7969 64.3125
L12.8906 25.3906
L37.7969 25.3906
z

M35.2031 72.9062
L47.6094 72.9062
L47.6094 25.3906
L58.0156 25.3906
L58.0156 17.1875
L47.6094 17.1875
L47.6094 0
L37.7969 0
L37.7969 17.1875
L4.89062 17.1875
L4.89062 26.7031
z
" id="BitstreamVeraSans-Roman-34"/>
      </defs>
      <g transform="translate(167.7284375 397.3590625)scale(0.06 -0.06)">
       <use xlink:href="#BitstreamVeraSans-Roman-34"/>
       <use x="63.623046875" xlink:href="#BitstreamVeraSans-Roman-30"/>
      </g>
     </g>
    </g>
    <g id="xtick_4">
     <g id="line2d_10">
      <g>
       <use style="stroke:#000000;stroke-width:0.5;" x="220.8" xlink:href="#m93b0483c22" y="388.8"/>
      </g>
     </g>
     <g id="line2d_11">
      <g>
       <use style="stroke:#000000;stroke-width:0.5;" x="220.8" xlink:href="#m741efc42ff" y="43.2"/>
      </g>
     </g>
     <g id="text_4">
      <!-- 60 -->
      <defs>
       <path d="
M33.0156 40.375
Q26.375 40.375 22.4844 35.8281
Q18.6094 31.2969 18.6094 23.3906
Q18.6094 15.5312 22.4844 10.9531
Q26.375 6.39062 33.0156 6.39062
Q39.6562 6.39062 43.5312 10.9531
Q47.4062 15.5312 47.4062 23.3906
Q47.4062 31.2969 43.5312 35.8281
Q39.6562 40.375 33.0156 40.375
M52.5938 71.2969
L52.5938 62.3125
Q48.875 64.0625 45.0938 64.9844
Q41.3125 65.9219 37.5938 65.9219
Q27.8281 65.9219 22.6719 59.3281
Q17.5312 52.7344 16.7969 39.4062
Q19.6719 43.6562 24.0156 45.9219
Q28.375 48.1875 33.5938 48.1875
Q44.5781 48.1875 50.9531 41.5156
Q57.3281 34.8594 57.3281 23.3906
Q57.3281 12.1562 50.6875 5.35938
Q44.0469 -1.42188 33.0156 -1.42188
Q20.3594 -1.42188 13.6719 8.26562
Q6.98438 17.9688 6.98438 36.375
Q6.98438 53.6562 15.1875 63.9375
Q23.3906 74.2188 37.2031 74.2188
Q40.9219 74.2188 44.7031 73.4844
Q48.4844 72.75 52.5938 71.2969" id="BitstreamVeraSans-Roman-36"/>
      </defs>
      <g transform="translate(217.39125 397.3590625)scale(0.06 -0.06)">
       <use xlink:href="#BitstreamVeraSans-Roman-36"/>
       <use x="63.623046875" xlink:href="#BitstreamVeraSans-Roman-30"/>
      </g>
     </g>
    </g>
    <g id="xtick_5">
     <g id="line2d_12">
      <g>
       <use style="stroke:#000000;stroke-width:0.5;" x="270.4" xlink:href="#m93b0483c22" y="388.8"/>
      </g>
     </g>
     <g id="line2d_13">
      <g>
       <use style="stroke:#000000;stroke-width:0.5;" x="270.4" xlink:href="#m741efc42ff" y="43.2"/>
      </g>
     </g>
     <g id="text_5">
      <!-- 80 -->
      <defs>
       <path d="
M31.7812 34.625
Q24.75 34.625 20.7188 30.8594
Q16.7031 27.0938 16.7031 20.5156
Q16.7031 13.9219 20.7188 10.1562
Q24.75 6.39062 31.7812 6.39062
Q38.8125 6.39062 42.8594 10.1719
Q46.9219 13.9688 46.9219 20.5156
Q46.9219 27.0938 42.8906 30.8594
Q38.875 34.625 31.7812 34.625
M21.9219 38.8125
Q15.5781 40.375 12.0312 44.7188
Q8.5 49.0781 8.5 55.3281
Q8.5 64.0625 14.7188 69.1406
Q20.9531 74.2188 31.7812 74.2188
Q42.6719 74.2188 48.875 69.1406
Q55.0781 64.0625 55.0781 55.3281
Q55.0781 49.0781 51.5312 44.7188
Q48 40.375 41.7031 38.8125
Q48.8281 37.1562 52.7969 32.3125
Q56.7812 27.4844 56.7812 20.5156
Q56.7812 9.90625 50.3125 4.23438
Q43.8438 -1.42188 31.7812 -1.42188
Q19.7344 -1.42188 13.25 4.23438
Q6.78125 9.90625 6.78125 20.5156
Q6.78125 27.4844 10.7812 32.3125
Q14.7969 37.1562 21.9219 38.8125
M18.3125 54.3906
Q18.3125 48.7344 21.8438 45.5625
Q25.3906 42.3906 31.7812 42.3906
Q38.1406 42.3906 41.7188 45.5625
Q45.3125 48.7344 45.3125 54.3906
Q45.3125 60.0625 41.7188 63.2344
Q38.1406 66.4062 31.7812 66.4062
Q25.3906 66.4062 21.8438 63.2344
Q18.3125 60.0625 18.3125 54.3906" id="BitstreamVeraSans-Roman-38"/>
      </defs>
      <g transform="translate(266.98515625 397.3590625)scale(0.06 -0.06)">
       <use xlink:href="#BitstreamVeraSans-Roman-38"/>
       <use x="63.623046875" xlink:href="#BitstreamVeraSans-Roman-30"/>
      </g>
     </g>
    </g>
    <g id="xtick_6">
     <g id="line2d_14">
      <g>
       <use style="stroke:#000000;stroke-width:0.5;" x="320.0" xlink:href="#m93b0483c22" y="388.8"/>
      </g>
     </g>
     <g id="line2d_15">
      <g>
       <use style="stroke:#000000;stroke-width:0.5;" x="320.0" xlink:href="#m741efc42ff" y="43.2"/>
      </g>
     </g>
     <g id="text_6">
      <!-- 100 -->
      <defs>
       <path d="
M12.4062 8.29688
L28.5156 8.29688
L28.5156 63.9219
L10.9844 60.4062
L10.9844 69.3906
L28.4219 72.9062
L38.2812 72.9062
L38.2812 8.29688
L54.3906 8.29688
L54.3906 0
L12.4062 0
z
" id="BitstreamVeraSans-Roman-31"/>
      </defs>
      <g transform="translate(314.8025 397.3590625)scale(0.06 -0.06)">
       <use xlink:href="#BitstreamVeraSans-Roman-31"/>
       <use x="63.623046875" xlink:href="#BitstreamVeraSans-Roman-30"/>
       <use x="127.24609375" xlink:href="#BitstreamVeraSans-Roman-30"/>
      </g>
     </g>
    </g>
    <g id="xtick_7">
     <g id="line2d_16">
      <g>
       <use style="stroke:#000000;stroke-width:0.5;" x="369.6" xlink:href="#m93b0483c22" y="388.8"/>
      </g>
     </g>
     <g id="line2d_17">
      <g>
       <use style="stroke:#000000;stroke-width:0.5;" x="369.6" xlink:href="#m741efc42ff" y="43.2"/>
      </g>
     </g>
     <g id="text_7">
      <!-- 120 -->
      <g transform="translate(364.4025 397.3590625)scale(0.06 -0.06)">
       <use xlink:href="#BitstreamVeraSans-Roman-31"/>
       <use x="63.623046875" xlink:href="#BitstreamVeraSans-Roman-32"/>
       <use x="127.24609375" xlink:href="#BitstreamVeraSans-Roman-30"/>
      </g>
     </g>
    </g>
    <g id="xtick_8">
     <g id="line2d_18">
      <g>
       <use style="stroke:#000000;stroke-width:0.5;" x="419.2" xlink:href="#m93b0483c22" y="388.8"/>
      </g>
     </g>
     <g id="line2d_19">
      <g>
       <use style="stroke:#000000;stroke-width:0.5;" x="419.2" xlink:href="#m741efc42ff" y="43.2"/>
      </g>
     </g>
     <g id="text_8">
      <!-- 140 -->
      <g transform="translate(414.0025 397.3590625)scale(0.06 -0.06)">
       <use xlink:href="#BitstreamVeraSans-Roman-31"/>
       <use x="63.623046875" xlink:href="#BitstreamVeraSans-Roman-34"/>
       <use x="127.24609375" xlink:href="#BitstreamVeraSans-Roman-30"/>
      </g>
     </g>
    </g>
    <g id="xtick_9">
     <g id="line2d_20">
      <g>
       <use style="stroke:#000000;stroke-width:0.5;" x="468.8" xlink:href="#m93b0483c22" y="388.8"/>
      </g>
     </g>
     <g id="line2d_21">
      <g>
       <use style="stroke:#000000;stroke-width:0.5;" x="468.8" xlink:href="#m741efc42ff" y="43.2"/>
      </g>
     </g>
     <g id="text_9">
      <!-- 160 -->
      <g transform="translate(463.6025 397.3590625)scale(0.06 -0.06)">
       <use xlink:href="#BitstreamVeraSans-Roman-31"/>
       <use x="63.623046875" xlink:href="#BitstreamVeraSans-Roman-36"/>
       <use x="127.24609375" xlink:href="#BitstreamVeraSans-Roman-30"/>
      </g>
     </g>
    </g>
    <g id="xtick_10">
     <g id="line2d_22">
      <g>
       <use style="stroke:#000000;stroke-width:0.5;" x="518.4" xlink:href="#m93b0483c22" y="388.8"/>
      </g>
     </g>
     <g id="line2d_23">
      <g>
       <use style="stroke:#000000;stroke-width:0.5;" x="518.4" xlink:href="#m741efc42ff" y="43.2"/>
      </g>
     </g>
     <g id="text_10">
      <!-- 180 -->
      <g transform="translate(513.2025 397.3590625)scale(0.06 -0.06)">
       <use xlink:href="#BitstreamVeraSans-Roman-31"/>
       <use x="63.623046875" xlink:href="#BitstreamVeraSans-Roman-38"/>
       <use x="127.24609375" xlink:href="#BitstreamVeraSans-Roman-30"/>
      </g>
     </g>
    </g>
    <g id="text_11">
     <!-- $\mathrm{Scattering\,Angle\,\theta}$ -->
     <defs>
      <path d="
M2.78125 -7.8125
Q2.78125 -4.25 5.35938 -1.57812
Q7.95312 1.07812 11.5312 2.20312
Q9.51562 3.71875 8.46875 6
Q7.42188 8.29688 7.42188 10.8906
Q7.42188 15.5781 10.4062 19.1875
Q5.8125 23.6875 5.8125 29.5
Q5.8125 32.625 7.15625 35.3594
Q8.5 38.0938 10.8906 40.0938
Q13.2812 42.0938 16.2031 43.1406
Q19.1406 44.1875 22.2188 44.1875
Q28.1719 44.1875 32.9062 40.7188
Q34.9688 42.9219 37.7656 44.1094
Q40.5781 45.3125 43.6094 45.3125
Q45.75 45.3125 47.1094 43.7656
Q48.4844 42.2344 48.4844 40.0938
Q48.4844 38.875 47.5469 37.9375
Q46.625 37.0156 45.4062 37.0156
Q44.1406 37.0156 43.2031 37.9375
Q42.2812 38.875 42.2812 40.0938
Q42.2812 41.9375 43.5 42.6719
Q38.3281 42.6719 34.625 39.1094
Q36.4219 37.3125 37.5156 34.6875
Q38.625 32.0781 38.625 29.5
Q38.625 25.25 36.2812 21.8438
Q33.9375 18.4531 30.0938 16.5781
Q26.2656 14.7031 22.2188 14.7031
Q16.75 14.7031 12.2031 17.6719
Q10.7969 15.7188 10.7969 13.2812
Q10.7969 10.6406 12.5312 8.65625
Q14.2656 6.6875 16.8906 6.6875
L25.0938 6.6875
Q31.0625 6.6875 35.8438 5.60938
Q40.625 4.54688 43.875 1.3125
Q47.125 -1.90625 47.125 -7.8125
Q47.125 -12.2031 43.4062 -15.1094
Q39.7031 -18.0156 34.5469 -19.3125
Q29.3906 -20.6094 25 -20.6094
Q20.5625 -20.6094 15.375 -19.3125
Q10.2031 -18.0156 6.48438 -15.1094
Q2.78125 -12.2031 2.78125 -7.8125
M8.40625 -7.8125
Q8.40625 -11.1875 11.1406 -13.4531
Q13.875 -15.7188 17.7188 -16.8125
Q21.5781 -17.9219 25 -17.9219
Q28.375 -17.9219 32.2188 -16.8125
Q36.0781 -15.7188 38.7812 -13.4531
Q41.5 -11.1875 41.5 -7.8125
Q41.5 -2.59375 36.7188 -1.04688
Q31.9375 0.484375 25.0938 0.484375
L16.8906 0.484375
Q14.5938 0.484375 12.6719 -0.609375
Q10.75 -1.70312 9.57812 -3.6875
Q8.40625 -5.67188 8.40625 -7.8125
M22.2188 17.3906
Q30.7188 17.3906 30.7188 29.5
Q30.7188 34.7188 28.9062 38.1094
Q27.0938 41.5 22.2188 41.5
Q17.3281 41.5 15.5156 38.1094
Q13.7188 34.7188 13.7188 29.5
Q13.7188 26.1719 14.4062 23.4844
Q15.0938 20.7969 16.9375 19.0938
Q18.7969 17.3906 22.2188 17.3906" id="Cmr10-67"/>
      <path d="
M2.98438 0
L2.98438 3.51562
Q6.39062 3.51562 8.59375 4.04688
Q10.7969 4.59375 10.7969 6.6875
L10.7969 33.9844
Q10.7969 36.6719 9.98438 37.8594
Q9.1875 39.0625 7.67188 39.3281
Q6.15625 39.5938 2.98438 39.5938
L2.98438 43.1094
L17.4844 44.1875
L17.4844 34.4219
Q19.4844 38.7188 23.4062 41.4531
Q27.3438 44.1875 31.9844 44.1875
Q38.9219 44.1875 42.4062 40.8594
Q45.9062 37.5469 45.9062 30.7188
L45.9062 6.6875
Q45.9062 4.59375 48.0938 4.04688
Q50.2969 3.51562 53.7188 3.51562
L53.7188 0
L30.8125 0
L30.8125 3.51562
Q34.2344 3.51562 36.4219 4.04688
Q38.625 4.59375 38.625 6.6875
L38.625 30.4219
Q38.625 35.2969 37.2031 38.4531
Q35.7969 41.6094 31.3906 41.6094
Q25.5938 41.6094 21.8438 36.9688
Q18.1094 32.3281 18.1094 26.4219
L18.1094 6.6875
Q18.1094 4.59375 20.3125 4.04688
Q22.5156 3.51562 25.875 3.51562
L25.875 0
z
" id="Cmr10-6e"/>
      <path d="
M4 9.8125
Q4 15.7656 8.6875 19.5
Q13.375 23.25 19.9375 24.7812
Q26.5156 26.3125 32.4219 26.3125
L32.4219 30.4219
Q32.4219 33.2969 31.1562 36
Q29.8906 38.7188 27.4844 40.4531
Q25.0938 42.1875 22.2188 42.1875
Q15.5781 42.1875 12.1094 39.2031
Q14.0156 39.2031 15.25 37.7656
Q16.5 36.3281 16.5 34.4219
Q16.5 32.4219 15.0781 31
Q13.6719 29.5938 11.7188 29.5938
Q9.71875 29.5938 8.29688 31
Q6.89062 32.4219 6.89062 34.4219
Q6.89062 39.7031 11.6719 42.2656
Q16.4531 44.8281 22.2188 44.8281
Q26.2656 44.8281 30.3594 43.0938
Q34.4688 41.3594 37.0781 38.125
Q39.7031 34.9062 39.7031 30.6094
L39.7031 8.10938
Q39.7031 6.15625 40.5312 4.51562
Q41.3594 2.875 43.1094 2.875
Q44.7812 2.875 45.5781 4.53125
Q46.3906 6.20312 46.3906 8.10938
L46.3906 14.5
L49.3125 14.5
L49.3125 8.10938
Q49.3125 5.85938 48.1406 3.82812
Q46.9688 1.8125 44.9844 0.609375
Q43.0156 -0.59375 40.7188 -0.59375
Q37.7969 -0.59375 35.6719 1.67188
Q33.5469 3.95312 33.2969 7.07812
Q31.4531 3.32812 27.8281 1.09375
Q24.2188 -1.125 20.125 -1.125
Q16.3125 -1.125 12.625 0
Q8.9375 1.125 6.46875 3.53125
Q4 5.95312 4 9.8125
M12.1094 9.8125
Q12.1094 6.29688 14.6875 3.90625
Q17.2812 1.51562 20.7969 1.51562
Q24.0312 1.51562 26.6562 3.125
Q29.2969 4.73438 30.8594 7.51562
Q32.4219 10.2969 32.4219 13.375
L32.4219 23.7812
Q27.875 23.7812 23.1094 22.2812
Q18.3594 20.7969 15.2344 17.625
Q12.1094 14.4531 12.1094 9.8125" id="Cmr10-61"/>
      <path d="
M3.07812 0
L3.07812 3.51562
Q6.5 3.51562 8.6875 4.04688
Q10.8906 4.59375 10.8906 6.6875
L10.8906 59.1875
Q10.8906 61.8594 10.0781 63.0625
Q9.28125 64.2656 7.76562 64.5312
Q6.25 64.7969 3.07812 64.7969
L3.07812 68.3125
L17.9219 69.3906
L17.9219 6.6875
Q17.9219 4.59375 20.1094 4.04688
Q22.3125 3.51562 25.6875 3.51562
L25.6875 0
z
" id="Cmr10-6c"/>
      <path d="
M3.21875 0
L3.21875 3.51562
Q12.1562 3.51562 14.2031 9.42188
L35.2031 70.5156
Q35.5 71.5781 36.8125 71.5781
L38.0938 71.5781
Q39.4062 71.5781 39.7031 70.5156
L61.625 6.6875
Q62.5469 4.59375 65.1562 4.04688
Q67.7812 3.51562 71.6875 3.51562
L71.6875 0
L43.7969 0
L43.7969 3.51562
Q52.0938 3.51562 52.0938 6.20312
L52.0938 6.6875
L46.6875 22.3125
L22.4062 22.3125
L17.9219 9.42188
Q17.8281 9.07812 17.8281 8.40625
Q17.8281 5.90625 20.1875 4.70312
Q22.5625 3.51562 25.2969 3.51562
L25.2969 0
z

M23.5781 25.7812
L45.5156 25.7812
L34.5156 57.7188
z
" id="Cmr10-41"/>
      <path d="
M3.07812 0
L3.07812 3.51562
Q6.5 3.51562 8.6875 4.04688
Q10.8906 4.59375 10.8906 6.6875
L10.8906 33.9844
Q10.8906 37.8438 9.39062 38.7188
Q7.90625 39.5938 3.51562 39.5938
L3.51562 43.1094
L17.9219 44.1875
L17.9219 6.6875
Q17.9219 4.59375 19.8281 4.04688
Q21.7344 3.51562 24.9062 3.51562
L24.9062 0
z

M7.32812 61.375
Q7.32812 63.5781 8.98438 65.2344
Q10.6406 66.8906 12.7969 66.8906
Q14.2031 66.8906 15.5156 66.1562
Q16.8438 65.4375 17.5781 64.1094
Q18.3125 62.7969 18.3125 61.375
Q18.3125 59.2344 16.6406 57.5625
Q14.9844 55.9062 12.7969 55.9062
Q10.6406 55.9062 8.98438 57.5625
Q7.32812 59.2344 7.32812 61.375" id="Cmr10-69"/>
      <path d="
M5.60938 -1.42188
L5.60938 21.9219
Q5.60938 22.7031 6.5 22.7031
L7.71875 22.7031
Q8.01562 22.7031 8.25 22.4531
Q8.5 22.2188 8.5 21.9219
Q8.5 12.1094 14.5781 6.70312
Q20.6562 1.3125 30.5156 1.3125
Q33.9844 1.3125 36.9062 3.3125
Q39.8438 5.32812 41.4688 8.5625
Q43.1094 11.8125 43.1094 15.2812
Q43.1094 18.3125 41.8906 21.1719
Q40.6719 24.0312 38.375 26.125
Q36.0781 28.2188 33.2031 28.9062
L20.2188 32.0781
Q13.7656 33.7969 9.6875 39.0938
Q5.60938 44.3906 5.60938 50.9844
Q5.60938 56.1562 8.25 60.6875
Q10.8906 65.2344 15.3594 67.875
Q19.8281 70.5156 25 70.5156
Q35.0156 70.5156 40.9219 63.7188
L45.0156 70.2188
Q45.3125 70.5156 45.7031 70.5156
L46.3906 70.5156
Q46.6875 70.5156 46.9531 70.2812
Q47.2188 70.0625 47.2188 69.6719
L47.2188 46.4844
Q47.2188 45.6094 46.3906 45.6094
L45.2188 45.6094
Q44.2812 45.6094 44.2812 46.4844
Q44.2812 49.0312 43.4219 52.0469
Q42.5781 55.0781 41.0625 57.8594
Q39.5469 60.6406 37.7969 62.4062
Q32.9531 67.2812 25 67.2812
Q21.5781 67.2812 18.7031 65.5469
Q15.8281 63.8125 14.1094 60.8281
Q12.4062 57.8594 12.4062 54.5938
Q12.4062 50.2969 15.0625 46.7969
Q17.7188 43.3125 22.0156 42.1875
L35.0156 39.0156
Q38.2344 38.2344 41.0938 36.2031
Q43.9531 34.1875 45.8438 31.5
Q47.75 28.8125 48.8281 25.5156
Q49.9062 22.2188 49.9062 18.7031
Q49.9062 13.2812 47.4062 8.46875
Q44.9219 3.65625 40.4062 0.71875
Q35.8906 -2.20312 30.5156 -2.20312
Q27.2031 -2.20312 23.7344 -1.46875
Q20.2656 -0.734375 17.3281 0.78125
Q14.4062 2.29688 12.0156 4.6875
L7.8125 -1.90625
Q7.51562 -2.20312 7.07812 -2.20312
L6.5 -2.20312
Q5.60938 -2.20312 5.60938 -1.42188" id="Cmr10-53"/>
      <path d="
M16.1094 -1.125
Q11.5781 -1.125 8.84375 2.1875
Q6.10938 5.51562 5.04688 10.2031
Q4 14.8906 4 19.4844
L4 19.5781
Q4 24.5625 4.95312 29.9219
Q5.90625 35.2969 7.70312 40.6406
Q9.51562 46 11.625 50.2031
Q13.0938 53.125 15.4062 56.7344
Q17.7188 60.3594 20.5781 63.5
Q23.4375 66.6562 26.7344 68.5781
Q30.0312 70.5156 33.4062 70.5156
L33.5 70.5156
Q37.1094 70.5156 39.5156 68.5
Q41.9375 66.5 43.2812 63.375
Q44.625 60.25 45.1562 56.6875
Q45.7031 53.125 45.7031 49.9062
Q45.7031 42.3281 43.6562 34.4375
Q41.6094 26.5625 37.9844 19.1875
Q36.625 16.4062 34.2031 12.6406
Q31.7812 8.89062 29.0781 5.90625
Q26.375 2.9375 23 0.90625
Q19.625 -1.125 16.2188 -1.125
z

M16.3125 1.51562
Q19.625 1.51562 22.6719 5.04688
Q25.7344 8.59375 28.0312 13.6406
Q30.3281 18.7031 32.0625 24
Q33.7969 29.2969 34.625 33.0156
L14.2031 33.0156
Q12.6406 26.7031 11.7656 22.1406
Q10.8906 17.5781 10.8906 13.1875
Q10.8906 1.51562 16.3125 1.51562
M14.9844 36.5312
L35.5 36.5312
Q36.5781 40.9219 37.2031 43.875
Q37.8438 46.8281 38.2812 50.0938
Q38.7188 53.375 38.7188 56.2031
Q38.7188 67.9219 33.4062 67.9219
Q27.0469 67.9219 22.4375 57.6875
Q17.8281 47.4688 14.9844 36.5312" id="Cmmi10-b5"/>
      <path d="
M24.9062 -1.125
Q18.7969 -1.125 13.6875 2.07812
Q8.59375 5.28125 5.6875 10.625
Q2.78125 15.9688 2.78125 21.9219
Q2.78125 27.7812 5.4375 33.0469
Q8.10938 38.3281 12.8594 41.5781
Q17.625 44.8281 23.4844 44.8281
Q28.0781 44.8281 31.4688 43.2812
Q34.8594 41.75 37.0625 39.0156
Q39.2656 36.2812 40.375 32.5625
Q41.5 28.8594 41.5 24.4219
Q41.5 23.0938 40.4844 23.0938
L11.5312 23.0938
L11.5312 22.0156
Q11.5312 13.7188 14.875 7.76562
Q18.2188 1.8125 25.7812 1.8125
Q28.8594 1.8125 31.4688 3.17188
Q34.0781 4.54688 36 6.98438
Q37.9375 9.42188 38.625 12.2031
Q38.7188 12.5469 38.9844 12.8125
Q39.2656 13.0938 39.5938 13.0938
L40.4844 13.0938
Q41.5 13.0938 41.5 11.8125
Q40.0938 6.15625 35.4062 2.51562
Q30.7188 -1.125 24.9062 -1.125
M11.625 25.5938
L34.4219 25.5938
Q34.4219 29.3438 33.375 33.2031
Q32.3281 37.0625 29.875 39.625
Q27.4375 42.1875 23.4844 42.1875
Q17.8281 42.1875 14.7188 36.8906
Q11.625 31.5938 11.625 25.5938" id="Cmr10-65"/>
      <path d="
M10.2031 12.0156
L10.2031 39.5938
L1.90625 39.5938
L1.90625 42.1875
Q8.45312 42.1875 11.5156 48.2812
Q14.5938 54.3906 14.5938 61.5312
L17.4844 61.5312
L17.4844 43.1094
L31.5938 43.1094
L31.5938 39.5938
L17.4844 39.5938
L17.4844 12.2031
Q17.4844 8.0625 18.875 4.9375
Q20.2656 1.8125 23.875 1.8125
Q27.2969 1.8125 28.8125 5.10938
Q30.3281 8.40625 30.3281 12.2031
L30.3281 18.1094
L33.2031 18.1094
L33.2031 12.0156
Q33.2031 8.89062 32.0469 5.82812
Q30.9062 2.78125 28.6562 0.828125
Q26.4219 -1.125 23.1875 -1.125
Q17.1875 -1.125 13.6875 2.46875
Q10.2031 6.0625 10.2031 12.0156" id="Cmr10-74"/>
      <path d="
M2.59375 0
L2.59375 3.51562
Q6 3.51562 8.20312 4.04688
Q10.4062 4.59375 10.4062 6.6875
L10.4062 33.9844
Q10.4062 36.6719 9.59375 37.8594
Q8.79688 39.0625 7.28125 39.3281
Q5.76562 39.5938 2.59375 39.5938
L2.59375 43.1094
L16.8906 44.1875
L16.8906 34.4219
Q18.5 38.7656 21.4844 41.4688
Q24.4688 44.1875 28.7188 44.1875
Q31.6875 44.1875 34.0312 42.4219
Q36.375 40.6719 36.375 37.7969
Q36.375 35.9844 35.0781 34.6406
Q33.7969 33.2969 31.8906 33.2969
Q30.0312 33.2969 28.7031 34.6094
Q27.3906 35.9375 27.3906 37.7969
Q27.3906 40.4844 29.2969 41.6094
L28.7188 41.6094
Q24.6562 41.6094 22.0938 38.6719
Q19.5312 35.75 18.4531 31.3906
Q17.3906 27.0469 17.3906 23.0938
L17.3906 6.6875
Q17.3906 3.51562 27.0938 3.51562
L27.0938 0
z
" id="Cmr10-72"/>
      <path d="
M24.9062 -1.125
Q18.8438 -1.125 13.9062 2.01562
Q8.98438 5.17188 6.15625 10.4219
Q3.32812 15.6719 3.32812 21.5781
Q3.32812 27.4844 6.125 32.9062
Q8.9375 38.3281 13.8906 41.5781
Q18.8438 44.8281 24.9062 44.8281
Q30.7656 44.8281 35.5625 42.5312
Q40.375 40.2344 40.375 35.0156
Q40.375 33.0625 38.9844 31.6094
Q37.5938 30.1719 35.5938 30.1719
Q33.5938 30.1719 32.2031 31.6094
Q30.8125 33.0625 30.8125 35.0156
Q30.8125 36.7656 31.9375 38.0625
Q33.0625 39.3594 34.7188 39.7031
Q31.25 41.8906 25 41.8906
Q20.2188 41.8906 17.2812 38.7188
Q14.3594 35.5469 13.1875 30.8594
Q12.0156 26.1719 12.0156 21.5781
Q12.0156 16.75 13.4531 12.2344
Q14.8906 7.71875 18.0938 4.76562
Q21.2969 1.8125 26.125 1.8125
Q30.8594 1.8125 34.1719 4.71875
Q37.5 7.625 38.7188 12.3125
Q38.7188 12.8906 39.5 12.8906
L40.7188 12.8906
Q41.0156 12.8906 41.25 12.625
Q41.5 12.3594 41.5 12.0156
L41.5 11.7188
Q39.9844 5.8125 35.4844 2.34375
Q31 -1.125 24.9062 -1.125" id="Cmr10-63"/>
     </defs>
     <g transform="translate(246.54 412.700625)scale(0.12 -0.12)">
      <use transform="translate(0.0 0.421875)" xlink:href="#Cmr10-53"/>
      <use transform="translate(55.517578125 0.421875)" xlink:href="#Cmr10-63"/>
      <use transform="translate(99.90234375 0.421875)" xlink:href="#Cmr10-61"/>
      <use transform="translate(149.90234375 0.421875)" xlink:href="#Cmr10-74"/>
      <use transform="translate(188.720703125 0.421875)" xlink:href="#Cmr10-74"/>
      <use transform="translate(227.5390625 0.421875)" xlink:href="#Cmr10-65"/>
      <use transform="translate(271.923828125 0.421875)" xlink:href="#Cmr10-72"/>
      <use transform="translate(311.03515625 0.421875)" xlink:href="#Cmr10-69"/>
      <use transform="translate(338.720703125 0.421875)" xlink:href="#Cmr10-6e"/>
      <use transform="translate(394.23828125 0.421875)" xlink:href="#Cmr10-67"/>
      <use transform="translate(477.55859375 0.421875)" xlink:href="#Cmr10-41"/>
      <use transform="translate(552.55859375 0.421875)" xlink:href="#Cmr10-6e"/>
      <use transform="translate(608.076171875 0.421875)" xlink:href="#Cmr10-67"/>
      <use transform="translate(658.076171875 0.421875)" xlink:href="#Cmr10-6c"/>
      <use transform="translate(685.76171875 0.421875)" xlink:href="#Cmr10-65"/>
      <use transform="translate(763.466796875 0.421875)" xlink:href="#Cmmi10-b5"/>
     </g>
    </g>
   </g>
   <g id="matplotlib.axis_2">
    <g id="ytick_1">
     <g id="line2d_24">
      <defs>
       <path d="
M0 0
L4 0" id="m728421d6d4" style="stroke:#000000;stroke-width:0.5;"/>
      </defs>
      <g>
       <use style="stroke:#000000;stroke-width:0.5;" x="72.0" xlink:href="#m728421d6d4" y="388.8"/>
      </g>
     </g>
     <g id="line2d_25">
      <defs>
       <path d="
M0 0
L-4 0" id="mcb0005524f" style="stroke:#000000;stroke-width:0.5;"/>
      </defs>
      <g>
       <use style="stroke:#000000;stroke-width:0.5;" x="518.4" xlink:href="#mcb0005524f" y="388.8"/>
      </g>
     </g>
     <g id="text_12">
      <!-- 1 -->
      <g transform="translate(65.395625 390.455625)scale(0.06 -0.06)">
       <use xlink:href="#BitstreamVeraSans-Roman-31"/>
      </g>
     </g>
    </g>
    <g id="ytick_2">
     <g id="line2d_26">
      <g>
       <use style="stroke:#000000;stroke-width:0.5;" x="72.0" xlink:href="#m728421d6d4" y="339.428571429"/>
      </g>
     </g>
     <g id="line2d_27">
      <g>
       <use style="stroke:#000000;stroke-width:0.5;" x="518.4" xlink:href="#mcb0005524f" y="339.428571429"/>
      </g>
     </g>
     <g id="text_13">
      <!-- 2 -->
      <g transform="translate(65.223125 341.084196429)scale(0.06 -0.06)">
       <use xlink:href="#BitstreamVeraSans-Roman-32"/>
      </g>
     </g>
    </g>
    <g id="ytick_3">
     <g id="line2d_28">
      <g>
       <use style="stroke:#000000;stroke-width:0.5;" x="72.0" xlink:href="#m728421d6d4" y="290.057142857"/>
      </g>
     </g>
     <g id="line2d_29">
      <g>
       <use style="stroke:#000000;stroke-width:0.5;" x="518.4" xlink:href="#mcb0005524f" y="290.057142857"/>
      </g>
     </g>
     <g id="text_14">
      <!-- 3 -->
      <defs>
       <path d="
M40.5781 39.3125
Q47.6562 37.7969 51.625 33
Q55.6094 28.2188 55.6094 21.1875
Q55.6094 10.4062 48.1875 4.48438
Q40.7656 -1.42188 27.0938 -1.42188
Q22.5156 -1.42188 17.6562 -0.515625
Q12.7969 0.390625 7.625 2.20312
L7.625 11.7188
Q11.7188 9.32812 16.5938 8.10938
Q21.4844 6.89062 26.8125 6.89062
Q36.0781 6.89062 40.9375 10.5469
Q45.7969 14.2031 45.7969 21.1875
Q45.7969 27.6406 41.2812 31.2656
Q36.7656 34.9062 28.7188 34.9062
L20.2188 34.9062
L20.2188 43.0156
L29.1094 43.0156
Q36.375 43.0156 40.2344 45.9219
Q44.0938 48.8281 44.0938 54.2969
Q44.0938 59.9062 40.1094 62.9062
Q36.1406 65.9219 28.7188 65.9219
Q24.6562 65.9219 20.0156 65.0312
Q15.375 64.1562 9.8125 62.3125
L9.8125 71.0938
Q15.4375 72.6562 20.3438 73.4375
Q25.25 74.2188 29.5938 74.2188
Q40.8281 74.2188 47.3594 69.1094
Q53.9062 64.0156 53.9062 55.3281
Q53.9062 49.2656 50.4375 45.0938
Q46.9688 40.9219 40.5781 39.3125" id="BitstreamVeraSans-Roman-33"/>
      </defs>
      <g transform="translate(65.1209375 291.712767857)scale(0.06 -0.06)">
       <use xlink:href="#BitstreamVeraSans-Roman-33"/>
      </g>
     </g>
    </g>
    <g id="ytick_4">
     <g id="line2d_30">
      <g>
       <use style="stroke:#000000;stroke-width:0.5;" x="72.0" xlink:href="#m728421d6d4" y="240.685714286"/>
      </g>
     </g>
     <g id="line2d_31">
      <g>
       <use style="stroke:#000000;stroke-width:0.5;" x="518.4" xlink:href="#mcb0005524f" y="240.685714286"/>
      </g>
     </g>
     <g id="text_15">
      <!-- 4 -->
      <g transform="translate(64.8125 242.341339286)scale(0.06 -0.06)">
       <use xlink:href="#BitstreamVeraSans-Roman-34"/>
      </g>
     </g>
    </g>
    <g id="ytick_5">
     <g id="line2d_32">
      <g>
       <use style="stroke:#000000;stroke-width:0.5;" x="72.0" xlink:href="#m728421d6d4" y="191.314285714"/>
      </g>
     </g>
     <g id="line2d_33">
      <g>
       <use style="stroke:#000000;stroke-width:0.5;" x="518.4" xlink:href="#mcb0005524f" y="191.314285714"/>
      </g>
     </g>
     <g id="text_16">
      <!-- 5 -->
      <defs>
       <path d="
M10.7969 72.9062
L49.5156 72.9062
L49.5156 64.5938
L19.8281 64.5938
L19.8281 46.7344
Q21.9688 47.4688 24.1094 47.8281
Q26.2656 48.1875 28.4219 48.1875
Q40.625 48.1875 47.75 41.5
Q54.8906 34.8125 54.8906 23.3906
Q54.8906 11.625 47.5625 5.09375
Q40.2344 -1.42188 26.9062 -1.42188
Q22.3125 -1.42188 17.5469 -0.640625
Q12.7969 0.140625 7.71875 1.70312
L7.71875 11.625
Q12.1094 9.23438 16.7969 8.0625
Q21.4844 6.89062 26.7031 6.89062
Q35.1562 6.89062 40.0781 11.3281
Q45.0156 15.7656 45.0156 23.3906
Q45.0156 31 40.0781 35.4375
Q35.1562 39.8906 26.7031 39.8906
Q22.75 39.8906 18.8125 39.0156
Q14.8906 38.1406 10.7969 36.2812
z
" id="BitstreamVeraSans-Roman-35"/>
      </defs>
      <g transform="translate(65.1696875 192.969910714)scale(0.06 -0.06)">
       <use xlink:href="#BitstreamVeraSans-Roman-35"/>
      </g>
     </g>
    </g>
    <g id="ytick_6">
     <g id="line2d_34">
      <g>
       <use style="stroke:#000000;stroke-width:0.5;" x="72.0" xlink:href="#m728421d6d4" y="141.942857143"/>
      </g>
     </g>
     <g id="line2d_35">
      <g>
       <use style="stroke:#000000;stroke-width:0.5;" x="518.4" xlink:href="#mcb0005524f" y="141.942857143"/>
      </g>
     </g>
     <g id="text_17">
      <!-- 6 -->
      <g transform="translate(64.979375 143.598482143)scale(0.06 -0.06)">
       <use xlink:href="#BitstreamVeraSans-Roman-36"/>
      </g>
     </g>
    </g>
    <g id="ytick_7">
     <g id="line2d_36">
      <g>
       <use style="stroke:#000000;stroke-width:0.5;" x="72.0" xlink:href="#m728421d6d4" y="92.5714285714"/>
      </g>
     </g>
     <g id="line2d_37">
      <g>
       <use style="stroke:#000000;stroke-width:0.5;" x="518.4" xlink:href="#mcb0005524f" y="92.5714285714"/>
      </g>
     </g>
     <g id="text_18">
      <!-- 7 -->
      <defs>
       <path d="
M8.20312 72.9062
L55.0781 72.9062
L55.0781 68.7031
L28.6094 0
L18.3125 0
L43.2188 64.5938
L8.20312 64.5938
z
" id="BitstreamVeraSans-Roman-37"/>
      </defs>
      <g transform="translate(65.1875 94.2270535714)scale(0.06 -0.06)">
       <use xlink:href="#BitstreamVeraSans-Roman-37"/>
      </g>
     </g>
    </g>
    <g id="ytick_8">
     <g id="line2d_38">
      <g>
       <use style="stroke:#000000;stroke-width:0.5;" x="72.0" xlink:href="#m728421d6d4" y="43.2"/>
      </g>
     </g>
     <g id="line2d_39">
      <g>
       <use style="stroke:#000000;stroke-width:0.5;" x="518.4" xlink:href="#mcb0005524f" y="43.2"/>
      </g>
     </g>
     <g id="text_19">
      <!-- 8 -->
      <g transform="translate(65.0 44.855625)scale(0.06 -0.06)">
       <use xlink:href="#BitstreamVeraSans-Roman-38"/>
      </g>
     </g>
    </g>
    <g id="text_20">
     <!-- $\frac{d\sigma}{d\Omega}\mathrm{\left(10^{-28}cm^{2}/sr\right)}$ -->
     <defs>
      <path d="
M4.98438 0
L4.98438 2.6875
Q4.98438 2.9375 5.17188 3.21875
L20.7031 20.4062
Q24.2188 24.2188 26.4062 26.7969
Q28.6094 29.3906 30.75 32.7656
Q32.9062 36.1406 34.1562 39.625
Q35.4062 43.1094 35.4062 47.0156
Q35.4062 51.125 33.8906 54.8594
Q32.375 58.5938 29.375 60.8438
Q26.375 63.0938 22.125 63.0938
Q17.7812 63.0938 14.3125 60.4688
Q10.8438 57.8594 9.42188 53.7188
Q9.8125 53.8125 10.5 53.8125
Q12.75 53.8125 14.3281 52.2969
Q15.9219 50.7812 15.9219 48.3906
Q15.9219 46.0938 14.3281 44.5
Q12.75 42.9219 10.5 42.9219
Q8.15625 42.9219 6.5625 44.5469
Q4.98438 46.1875 4.98438 48.3906
Q4.98438 52.1562 6.39062 55.4375
Q7.8125 58.7344 10.4688 61.2969
Q13.1406 63.875 16.4844 65.2344
Q19.8281 66.6094 23.5781 66.6094
Q29.2969 66.6094 34.2188 64.1875
Q39.1562 61.7656 42.0312 57.3438
Q44.9219 52.9375 44.9219 47.0156
Q44.9219 42.6719 43.0156 38.7656
Q41.1094 34.8594 38.125 31.6562
Q35.1562 28.4688 30.5156 24.4062
Q25.875 20.3594 24.4219 19
L13.0938 8.10938
L22.7031 8.10938
Q29.7812 8.10938 34.5469 8.21875
Q39.3125 8.34375 39.5938 8.59375
Q40.7656 9.85938 42 17.8281
L44.9219 17.8281
L42.0938 0
z
" id="Cmr10-32"/>
      <path d="
M9.28125 0
L9.28125 3.51562
Q21.7812 3.51562 21.7812 6.6875
L21.7812 59.1875
Q16.6094 56.6875 8.6875 56.6875
L8.6875 60.2031
Q20.9531 60.2031 27.2031 66.6094
L28.6094 66.6094
Q28.9531 66.6094 29.2656 66.3281
Q29.5938 66.0625 29.5938 65.7188
L29.5938 6.6875
Q29.5938 3.51562 42.0938 3.51562
L42.0938 0
z
" id="Cmr10-31"/>
      <path d="
M25 -2.20312
Q12.75 -2.20312 8.32812 7.875
Q3.90625 17.9688 3.90625 31.8906
Q3.90625 40.5781 5.48438 48.2344
Q7.07812 55.9062 11.7812 61.25
Q16.5 66.6094 25 66.6094
Q31.5938 66.6094 35.7812 63.375
Q39.9844 60.1562 42.1875 55.0469
Q44.3906 49.9531 45.1875 44.1094
Q46 38.2812 46 31.8906
Q46 23.2969 44.4062 15.7969
Q42.8281 8.29688 38.1875 3.04688
Q33.5469 -2.20312 25 -2.20312
M25 0.390625
Q30.5625 0.390625 33.2969 6.09375
Q36.0312 11.8125 36.6719 18.75
Q37.3125 25.6875 37.3125 33.5
Q37.3125 41.0156 36.6719 47.3594
Q36.0312 53.7188 33.3125 58.8594
Q30.6094 64.0156 25 64.0156
Q19.3438 64.0156 16.6094 58.8281
Q13.875 53.6562 13.2344 47.3281
Q12.5938 41.0156 12.5938 33.5
Q12.5938 27.9375 12.8594 23
Q13.1406 18.0625 14.3125 12.8125
Q15.4844 7.5625 18.0938 3.96875
Q20.7031 0.390625 25 0.390625" id="Cmr10-30"/>
      <path d="
M4.98438 -115.922
Q4.10938 -115.922 4.10938 -114.984
Q4.10938 -114.594 4.29688 -114.406
Q11.4688 -106.938 15.6406 -97.4375
Q19.8281 -87.9375 21.5 -77.5156
Q23.1875 -67.0938 23.1875 -55.9062
Q23.1875 -17.0469 4.29688 2.48438
Q4.10938 2.6875 4.10938 3.07812
Q4.10938 4 4.98438 4
L6.20312 4
Q6.5 4 6.6875 3.8125
Q19 -6.45312 24.75 -22.2344
Q30.5156 -38.0312 30.5156 -56
Q30.5156 -73.8281 24.7812 -89.5938
Q19.0469 -105.375 6.6875 -115.719
Q6.5 -115.922 6.20312 -115.922
z
" id="Cmex10-a2"/>
      <path d="
M18.7031 -1.125
Q14.2656 -1.125 10.8125 1
Q7.375 3.125 5.48438 6.73438
Q3.60938 10.3594 3.60938 14.7031
Q3.60938 19.3438 5.70312 24.4688
Q7.8125 29.5938 11.4531 33.8438
Q15.0938 38.0938 19.6719 40.5938
Q24.2656 43.1094 29.1094 43.1094
L54.2969 43.1094
Q55.3281 43.1094 56.0469 42.4219
Q56.7812 41.75 56.7812 40.5781
Q56.7812 39.1094 55.7344 38.0156
Q54.6875 36.9219 53.2188 36.9219
L41.0156 36.9219
Q43.8906 32.625 43.8906 26.5156
Q43.8906 21.4844 41.9375 16.5938
Q39.9844 11.7188 36.5156 7.6875
Q33.0625 3.65625 28.4375 1.26562
Q23.8281 -1.125 18.7031 -1.125
M18.7969 1.51562
Q24.2656 1.51562 28.4844 5.78125
Q32.7188 10.0625 34.9531 16.2344
Q37.2031 22.4062 37.2031 27.6875
Q37.2031 31.9844 34.8281 34.4531
Q32.4688 36.9219 28.2188 36.9219
Q22.4062 36.9219 18.3281 33.0156
Q14.2656 29.1094 12.2344 23.1875
Q10.2031 17.2812 10.2031 11.8125
Q10.2031 7.51562 12.4688 4.51562
Q14.75 1.51562 18.7969 1.51562" id="Cmmi10-be"/>
      <path d="
M4.20312 15.1875
Q4.20312 21.1875 8.15625 25.7969
Q12.1094 30.4219 18.3125 33.5
L14.5938 35.8906
Q11.1875 38.1406 9.03125 41.875
Q6.89062 45.6094 6.89062 49.7031
Q6.89062 54.5 9.40625 58.3438
Q11.9219 62.2031 16.0938 64.4062
Q20.2656 66.6094 25 66.6094
Q29.4375 66.6094 33.5625 64.7969
Q37.7031 62.9844 40.3594 59.6094
Q43.0156 56.25 43.0156 51.6094
Q43.0156 48.25 41.4219 45.3594
Q39.8438 42.4844 37.0781 40.1875
Q34.3281 37.8906 31.2031 36.2812
L36.9219 32.625
Q40.875 30.0312 43.2812 25.8281
Q45.7031 21.625 45.7031 17
Q45.7031 11.5781 42.7969 7.125
Q39.8906 2.6875 35.1094 0.234375
Q30.3281 -2.20312 25 -2.20312
Q19.8281 -2.20312 15.0156 -0.09375
Q10.2031 2 7.20312 5.98438
Q4.20312 9.96875 4.20312 15.1875
M9.625 15.1875
Q9.625 11.2344 11.7969 7.95312
Q13.9688 4.6875 17.5312 2.82812
Q21.0938 0.984375 25 0.984375
Q30.8125 0.984375 35.5469 4.375
Q40.2812 7.76562 40.2812 13.375
Q40.2812 15.2812 39.5156 17.1562
Q38.7656 19.0469 37.4219 20.5781
Q36.0781 22.125 34.4219 23.0938
L21 31.7812
Q17.875 30.125 15.25 27.5781
Q12.6406 25.0469 11.125 21.875
Q9.625 18.7031 9.625 15.1875
M16.5 45.7031
L28.6094 37.8906
Q32.8125 40.3281 35.5 43.7969
Q38.1875 47.2656 38.1875 51.6094
Q38.1875 54.9844 36.2969 57.7812
Q34.4219 60.5938 31.3906 62.1562
Q28.375 63.7188 24.9062 63.7188
Q21.875 63.7188 18.7969 62.5469
Q15.7188 61.375 13.7188 59.0469
Q11.7188 56.7344 11.7188 53.6094
Q11.7188 48.9219 16.5 45.7031" id="Cmr10-38"/>
      <path d="
M2.98438 0
L2.98438 3.51562
Q6.39062 3.51562 8.59375 4.04688
Q10.7969 4.59375 10.7969 6.6875
L10.7969 33.9844
Q10.7969 36.6719 9.98438 37.8594
Q9.1875 39.0625 7.67188 39.3281
Q6.15625 39.5938 2.98438 39.5938
L2.98438 43.1094
L17.4844 44.1875
L17.4844 34.4219
Q19.4844 38.7188 23.4062 41.4531
Q27.3438 44.1875 31.9844 44.1875
Q43.5 44.1875 45.5156 34.8125
Q47.5156 39.0156 51.3594 41.5938
Q55.2188 44.1875 59.8125 44.1875
Q64.3594 44.1875 67.4531 42.7188
Q70.5625 41.2656 72.125 38.25
Q73.6875 35.25 73.6875 30.7188
L73.6875 6.6875
Q73.6875 4.59375 75.9062 4.04688
Q78.125 3.51562 81.5 3.51562
L81.5 0
L58.5938 0
L58.5938 3.51562
Q62.0156 3.51562 64.2031 4.04688
Q66.4062 4.59375 66.4062 6.6875
L66.4062 30.4219
Q66.4062 35.4531 64.9844 38.5312
Q63.5781 41.6094 59.1875 41.6094
Q53.4219 41.6094 49.6562 36.9688
Q45.9062 32.3281 45.9062 26.4219
L45.9062 6.6875
Q45.9062 4.59375 48.0938 4.04688
Q50.2969 3.51562 53.7188 3.51562
L53.7188 0
L30.8125 0
L30.8125 3.51562
Q34.2344 3.51562 36.4219 4.04688
Q38.625 4.59375 38.625 6.6875
L38.625 30.4219
Q38.625 35.2969 37.2031 38.4531
Q35.7969 41.6094 31.3906 41.6094
Q25.5938 41.6094 21.8438 36.9688
Q18.1094 32.3281 18.1094 26.4219
L18.1094 6.6875
Q18.1094 4.59375 20.3125 4.04688
Q22.5156 3.51562 25.875 3.51562
L25.875 0
z
" id="Cmr10-6d"/>
      <path d="
M39.1094 -115.719
Q26.7656 -105.375 20.9688 -89.5938
Q15.1875 -73.8281 15.1875 -56
Q15.1875 -38.0312 20.9688 -22.2344
Q26.7656 -6.45312 39.1094 3.8125
Q39.1094 4 39.5938 4
L40.8281 4
Q41.1094 4 41.3594 3.6875
Q41.6094 3.375 41.6094 3.07812
Q41.6094 2.6875 41.4062 2.48438
Q35.9844 -3.125 32.2969 -10
Q28.6094 -16.8906 26.4844 -24.2812
Q24.3594 -31.6875 23.4375 -39.7344
Q22.5156 -47.7969 22.5156 -56.1094
Q22.5156 -94.875 41.4062 -114.406
Q41.6094 -114.594 41.6094 -114.984
Q41.6094 -115.281 41.3281 -115.594
Q41.0625 -115.922 40.8281 -115.922
L39.5938 -115.922
Q39.1094 -115.922 39.1094 -115.719" id="Cmex10-a1"/>
      <path d="
M10.2031 23
Q9.375 23 8.82812 23.625
Q8.29688 24.2656 8.29688 25
Q8.29688 25.7344 8.82812 26.3594
Q9.375 27 10.2031 27
L67.5781 27
Q68.3594 27 68.875 26.3594
Q69.3906 25.7344 69.3906 25
Q69.3906 24.2656 68.875 23.625
Q68.3594 23 67.5781 23
z
" id="Cmsy10-a1"/>
      <path d="
M17.3906 -1.125
Q11.0781 -1.125 7.4375 3.64062
Q3.8125 8.40625 3.8125 14.8906
Q3.8125 21.2969 7.125 28.1719
Q10.4531 35.0625 16.0938 39.625
Q21.7344 44.1875 28.2188 44.1875
Q31.1562 44.1875 33.5156 42.5469
Q35.8906 40.9219 37.2031 38.1875
L42.8281 60.5
Q43.2188 62.2031 43.3125 63.1875
Q43.3125 64.7969 36.8125 64.7969
Q35.7969 64.7969 35.7969 66.1094
Q35.8438 66.3594 36.0156 66.9844
Q36.1875 67.625 36.4531 67.9688
Q36.7188 68.3125 37.2031 68.3125
L50.6875 69.3906
Q51.9062 69.3906 51.9062 68.1094
L37.5 10.5938
Q36.8125 8.9375 36.8125 5.8125
Q36.8125 1.51562 39.7031 1.51562
Q42.8281 1.51562 44.4531 5.48438
Q46.0938 9.46875 47.2188 14.7031
Q47.4062 15.2812 48 15.2812
L49.2188 15.2812
Q49.6094 15.2812 49.8438 14.9375
Q50.0938 14.5938 50.0938 14.3125
Q48.3438 7.32812 46.2656 3.09375
Q44.1875 -1.125 39.5 -1.125
Q36.1406 -1.125 33.5469 0.84375
Q30.9531 2.82812 30.3281 6.10938
Q23.875 -1.125 17.3906 -1.125
M17.4844 1.51562
Q21.0938 1.51562 24.4844 4.21875
Q27.875 6.9375 30.3281 10.5938
Q30.4219 10.6875 30.4219 10.9844
L35.8906 33.0156
Q35.2969 36.5312 33.2969 39.0625
Q31.2969 41.6094 27.9844 41.6094
Q24.6094 41.6094 21.7031 38.8438
Q18.7969 36.0781 16.7969 32.3281
Q14.8438 28.3281 13.0625 21.3438
Q11.2812 14.3594 11.2812 10.5
Q11.2812 7.03125 12.7656 4.26562
Q14.2656 1.51562 17.4844 1.51562" id="Cmmi10-64"/>
      <path d="
M5.60938 -23
Q5.60938 -22.7031 5.71875 -22.6094
L40.4844 73.7812
Q40.6719 74.3594 41.1562 74.6719
Q41.6562 75 42.2812 75
Q43.1719 75 43.7188 74.4531
Q44.2812 73.9219 44.2812 73
L44.2812 72.6094
L9.51562 -23.7812
Q8.9375 -25 7.625 -25
Q6.78125 -25 6.1875 -24.4062
Q5.60938 -23.8281 5.60938 -23" id="Cmmi10-3d"/>
      <path d="
M3.32812 -0.296875
L3.32812 16.0156
Q3.32812 16.7969 4.20312 16.7969
L5.42188 16.7969
Q6 16.7969 6.20312 16.0156
Q8.98438 1.51562 19.6719 1.51562
Q24.4219 1.51562 27.6094 3.65625
Q30.8125 5.8125 30.8125 10.2969
Q30.8125 13.5312 28.3125 15.7969
Q25.8281 18.0625 22.4062 18.8906
L15.7188 20.2188
Q12.3594 20.9531 9.59375 22.4531
Q6.84375 23.9688 5.07812 26.4844
Q3.32812 29 3.32812 32.3281
Q3.32812 36.7188 5.64062 39.5156
Q7.95312 42.3281 11.6562 43.5781
Q15.375 44.8281 19.6719 44.8281
Q24.8125 44.8281 28.6094 42.0938
L31.5 44.5781
Q31.5 44.8281 31.9844 44.8281
L32.7188 44.8281
Q33.0156 44.8281 33.25 44.5469
Q33.5 44.2812 33.5 44
L33.5 30.9062
Q33.5 29.9844 32.7188 29.9844
L31.5 29.9844
Q30.6094 29.9844 30.6094 30.9062
Q30.6094 36.1406 27.7031 39.3125
Q24.8125 42.4844 19.5781 42.4844
Q15.0938 42.4844 11.7969 40.8125
Q8.5 39.1562 8.5 35.1094
Q8.5 32.3281 10.8594 30.5469
Q13.2344 28.7656 16.4062 27.9844
L23.1875 26.7031
Q26.6094 25.9219 29.5625 24.0625
Q32.5156 22.2188 34.25 19.375
Q35.9844 16.5469 35.9844 12.9844
Q35.9844 9.375 34.7344 6.70312
Q33.5 4.04688 31.2656 2.28125
Q29.0469 0.53125 26.0156 -0.296875
Q23 -1.125 19.6719 -1.125
Q13.4219 -1.125 8.98438 3.07812
L5.32812 -0.875
Q5.32812 -1.125 4.78125 -1.125
L4.20312 -1.125
Q3.32812 -1.125 3.32812 -0.296875" id="Cmr10-73"/>
      <path d="
M7.71875 0
L4.39062 16.6094
L7.32812 16.6094
Q7.85938 13.7188 8.29688 11.5
Q8.73438 9.28125 9.4375 8.375
Q10.1562 7.46875 11.7188 7.17188
Q13.2812 6.89062 16.8906 6.89062
L23 6.89062
Q21.5312 12.5469 15.6875 21.6562
Q9.85938 30.7656 7.73438 34.8906
Q5.60938 39.0156 5.60938 45.5156
Q5.60938 53.0781 10.0938 58.7656
Q14.5938 64.4531 21.7031 67.4844
Q28.8125 70.5156 36.0781 70.5156
Q43.3125 70.5156 50.4062 67.4844
Q57.5156 64.4531 62 58.7188
Q66.5 52.9844 66.5 45.5156
Q66.5 40.4375 64.6406 35.9375
Q62.7969 31.4531 59.9062 26.9531
Q57.0312 22.4688 53.6875 16.9375
Q50.3438 11.4219 49.125 6.89062
L55.1719 6.89062
Q58.8438 6.89062 60.4531 7.17188
Q62.0625 7.46875 62.7344 8.375
Q63.4219 9.28125 63.8438 11.5
Q64.2656 13.7188 64.7969 16.6094
L67.6719 16.6094
L64.4062 0
L46.6875 0
Q45.7031 0 45.7031 1.3125
Q45.7031 6.39062 46.9375 11.2656
Q48.1875 16.1562 50.625 23.0938
Q53.0781 30.0312 54.4375 35.3281
Q55.8125 40.625 55.8125 45.5156
Q55.8125 51.5156 53.4688 56.6406
Q51.125 61.7656 46.625 64.8438
Q42.1406 67.9219 36.0781 67.9219
Q26.9531 67.9219 21.625 61.4062
Q16.3125 54.8906 16.3125 45.5156
Q16.3594 40.375 17.5312 35.8281
Q18.7031 31.2969 21.3125 23.7188
Q23.9219 16.1562 25.1719 11.2656
Q26.4219 6.39062 26.4219 1.3125
Q26.4219 0 25.3906 0
z
" id="Cmr10-ad"/>
     </defs>
     <g transform="translate(54.5325 260.28)rotate(-90.0)scale(0.12 -0.12)">
      <use transform="translate(5.0 39.1609375)scale(0.7)" xlink:href="#Cmmi10-64"/>
      <use transform="translate(41.4013671875 39.1609375)scale(0.7)" xlink:href="#Cmmi10-be"/>
      <use transform="translate(0.0 -42.2375)scale(0.7)" xlink:href="#Cmmi10-64"/>
      <use transform="translate(36.4013671875 -42.2375)scale(0.7)" xlink:href="#Cmr10-ad"/>
      <use transform="translate(99.453125 87.1546875)scale(0.960013029316)" xlink:href="#Cmex10-a1"/>
      <use transform="translate(143.421875 0.8734375)" xlink:href="#Cmr10-31"/>
      <use transform="translate(193.421875 0.8734375)" xlink:href="#Cmr10-30"/>
      <use transform="translate(243.421875 44.3734375)scale(0.7)" xlink:href="#Cmsy10-a1"/>
      <use transform="translate(297.801757812 44.3734375)scale(0.7)" xlink:href="#Cmr10-32"/>
      <use transform="translate(332.801757812 44.3734375)scale(0.7)" xlink:href="#Cmr10-38"/>
      <use transform="translate(385.201757812 0.8734375)" xlink:href="#Cmr10-63"/>
      <use transform="translate(429.586523437 0.8734375)" xlink:href="#Cmr10-6d"/>
      <use transform="translate(512.887304687 44.3734375)scale(0.7)" xlink:href="#Cmr10-32"/>
      <use transform="translate(565.287304687 0.8734375)" xlink:href="#Cmmi10-3d"/>
      <use transform="translate(615.287304687 0.8734375)" xlink:href="#Cmr10-73"/>
      <use transform="translate(654.691601562 0.8734375)" xlink:href="#Cmr10-72"/>
      <use transform="translate(693.802929687 87.1546875)scale(0.960013029316)" xlink:href="#Cmex10-a2"/>
      <path d="
M0 13.3734
L0 19.6234
L86.9531 19.6234
L86.9531 13.3734
L0 13.3734
z
"/>
     </g>
    </g>
    <g id="text_21">
     <!-- 1e−28 -->
     <defs>
      <path d="
M56.2031 29.5938
L56.2031 25.2031
L14.8906 25.2031
Q15.4844 15.9219 20.4844 11.0625
Q25.4844 6.20312 34.4219 6.20312
Q39.5938 6.20312 44.4531 7.46875
Q49.3125 8.73438 54.1094 11.2812
L54.1094 2.78125
Q49.2656 0.734375 44.1875 -0.34375
Q39.1094 -1.42188 33.8906 -1.42188
Q20.7969 -1.42188 13.1562 6.1875
Q5.51562 13.8125 5.51562 26.8125
Q5.51562 40.2344 12.7656 48.1094
Q20.0156 56 32.3281 56
Q43.3594 56 49.7812 48.8906
Q56.2031 41.7969 56.2031 29.5938
M47.2188 32.2344
Q47.125 39.5938 43.0938 43.9844
Q39.0625 48.3906 32.4219 48.3906
Q24.9062 48.3906 20.3906 44.1406
Q15.875 39.8906 15.1875 32.1719
z
" id="BitstreamVeraSans-Roman-65"/>
      <path d="
M10.5938 35.5
L73.1875 35.5
L73.1875 27.2031
L10.5938 27.2031
z
" id="BitstreamVeraSans-Roman-2212"/>
     </defs>
     <g transform="translate(72.0 40.2)scale(0.06 -0.06)">
      <use xlink:href="#BitstreamVeraSans-Roman-31"/>
      <use x="63.623046875" xlink:href="#BitstreamVeraSans-Roman-65"/>
      <use x="125.146484375" xlink:href="#BitstreamVeraSans-Roman-2212"/>
      <use x="208.935546875" xlink:href="#BitstreamVeraSans-Roman-32"/>
      <use x="272.55859375" xlink:href="#BitstreamVeraSans-Roman-38"/>
     </g>
    </g>
   </g>
  </g>
 </g>
 <defs>
  <clipPath id="p7ff5b81e1d">
   <rect height="345.6" width="446.4" x="72.0" y="43.2"/>
  </clipPath>
 </defs>
</svg>
